<?xml version="1.0" encoding="utf-8"?>
<!-- Generator: Adobe Illustrator 24.2.0, SVG Export Plug-In . SVG Version: 6.00 Build 0)  -->
<svg version="1.1" id="Layer_1" xmlns="http://www.w3.org/2000/svg" xmlns:xlink="http://www.w3.org/1999/xlink" x="0px" y="0px"
	 viewBox="0 0 1000 1000" style="enable-background:new 0 0 1000 1000;" xml:space="preserve">
<style type="text/css">
	.st0{fill:#58407E;}
</style>
<g>
	<path class="st0" d="M56.8,411.1c0.7-0.1,1.3-0.3,1.9-0.3c24.5,0.1,49.1,0.1,73.6,0.4c8.4,0.1,16,3.1,22.9,8
		c15.7,11.2,17.1,43-4.4,54.5c-1.1,0.6-2.2,1.2-3.7,2c4.1,1.9,8.1,3.1,11.5,5.4c13,8.6,18.2,27.9,12.4,44.8
		c-5.1,14.8-17.1,20.8-31,24.1c-4.6,1.1-9.4,1.6-14.1,1.7c-22.9,0.2-45.9,0.1-69.2,0.1C56.8,504.7,56.8,458,56.8,411.1L56.8,411.1z
		 M81.3,530.9c17.1,0,33.6,0.4,50.2-0.1c10.4-0.3,17.9-11.5,17.3-22.3c-0.6-10.7-7.2-19.8-17.4-20.2c-16.4-0.8-32.8-0.5-49.3-0.7
		c-0.2,0-0.5,0.4-0.8,0.6L81.3,530.9L81.3,530.9z M81.4,469.2c15.3,0,30,0.6,44.6-0.2c10.8-0.5,16.9-9.2,16.5-21
		c-0.4-10.4-6.5-16.7-17.6-17c-13.9-0.4-27.8-0.2-41.8-0.2c-0.6,0-1.1,0.3-1.7,0.5V469.2z M842,449.9h20.5v11
		c2.3-1.8,5.1-3.7,7.6-5.9c15.7-13.5,52.9-11.8,65.6,15.3c11,23.3,10.5,46.8-4.3,68.5c-8.2,12-20.9,16.3-35.2,15.5
		c-12.5-0.7-23.5-4.6-32.1-16.1v51.1h-22C842,542.8,842,496.5,842,449.9L842,449.9z M862.8,501.2c0.9,5.1,1.4,10.3,2.9,15.3
		c3.2,11.1,12.9,19.3,22.9,20c13.4,0.9,23.1-4,27.9-15.9c6.2-15.1,5.9-30.4-3.1-44.5c-10.6-16.7-36.1-15.3-45.1,2.2
		C864.6,485.5,862.7,493,862.8,501.2L862.8,501.2z M827.5,536.9c0,4.2,0.1,8.4-0.1,12.6c-0.1,1-1.4,2.8-2.2,2.9
		c-6.4,0.5-12.9,1.5-19.2,0.8c-5.6-0.6-8.6-5.3-10.3-10.7c-13.2,10.7-28.3,13.1-44.4,11.1c-13.4-1.7-24.6-12.7-25.5-25
		c-1.3-16.9,5.2-27.9,20.3-31.9c10.6-2.8,21.7-3.9,32.6-5.8c2.6-0.5,5.3-0.8,7.9-1.5c5-1.4,8.5-4.1,8.9-9.7
		c0.4-5.8-1.9-10.4-7.4-12.6c-9.3-3.8-18.9-3.7-28.1,0.6c-4.2,2-6.7,5.9-8.9,12.6h-21.6c0-8.2,2.9-15.1,8.3-20.9
		c7.2-7.7,16.6-10.7,26.7-11.8c10.6-1.1,21.1-1.1,31.4,2.4c13.8,4.7,20.5,13.8,20.5,28.4c0,15.5,0,31.1,0,46.6
		C816.5,536,816.5,536,827.5,536.9L827.5,536.9z M794.2,501.9c-6.8,1.2-13,2.1-19.2,3.4c-6.5,1.4-13,2.5-19.2,4.8
		c-6,2.2-8.1,7.9-7.9,13.9c0.2,5.8,4.1,9,9.2,10.8c8.7,3.1,17.5,2.7,25.8-1.2c6-2.8,10.5-7.4,11.1-14.3
		C794.5,513.4,794.2,507.5,794.2,501.9z M239.2,447c33.8-0.4,53.7,24.4,51.6,58.2c-0.7,11.7-3.9,22.7-11.6,32
		c-8.3,10-19,15.3-31.9,16.7c-10.7,1.2-21.1,0.5-31.1-4c-14.8-6.7-23.2-18.4-26.8-34.1c-2.4-10.7-2.3-21.4,0.4-31.9
		C195.9,460.4,213.9,447.1,239.2,447L239.2,447z M209.8,500.8c0.9,5,1.4,10,2.7,14.8c3.5,12.2,13.2,20.3,24.3,20.9
		c13.7,0.7,23.2-5.1,28.3-17.8c5-12.4,5-25.1-0.5-37.4c-8-18.2-30-22.8-44.1-9.3C212.5,479.7,210.4,490,209.8,500.8L209.8,500.8z
		 M356.6,447c30.5,0,51.3,20.5,51.6,51.1c0.2,12.9-1.9,25.2-9.5,36c-10.8,15.5-26.5,20.9-44.6,20.1c-6.6-0.3-13.5-1.8-19.7-4.2
		c-14.5-5.7-23.2-17-27.1-32c-3.4-13.2-3-26.3,1.3-39.3C315.2,458.9,333.3,447,356.6,447L356.6,447z M385.8,498.1
		c-0.5-2.7-1-8-2.4-12.9c-3.7-12.6-13.5-20.2-25.9-20.8c-11.7-0.5-22.1,6.4-26.7,18.4c-5.3,14.2-4.9,28.3,3.1,41.5
		c8.4,13.8,27.3,16.8,39.7,6.5C383.1,523,385.4,512.2,385.8,498.1L385.8,498.1z M574.4,478.1c-7,0-13.7,0.1-20.5-0.1
		c-0.8,0-2.1-0.9-2.4-1.6c-3.8-10.6-12.8-11.8-22-11.9c-3.8,0-7.9,0.9-11.5,2.4c-7.6,3.2-8.5,11.8-1.3,15.9c4.9,2.9,10.8,4.4,16.3,6
		c7.9,2.2,16,3.6,23.9,5.9c20,6.1,27.9,26.2,16.7,42.7c-5.4,7.9-13.4,12.2-22.7,14.5c-13.6,3.3-27.2,3.5-40.6-1.3
		c-14.3-5.2-21.8-15.5-22.9-31.2h21.8c6.2,16.2,23.7,22.5,40.1,14.2c3.8-1.9,6.3-4.6,6.6-9.1c0.3-4.8-1.6-8.9-5.9-10.5
		c-7.6-2.8-15.6-4.8-23.5-7.1c-6.5-1.9-13.2-3.3-19.5-5.8c-12.1-4.8-17.4-13-17.3-25.6c0.1-11,6.5-20.3,17.8-24.5
		c15.6-5.7,31.6-6.4,47.3-0.2c10.6,4.2,16.9,12.4,19.6,23.4C574.6,475.5,574.4,476.6,574.4,478.1z M456.2,449.6h20.2v16.5h-19.7
		c-0.1,2-0.3,3.4-0.3,4.7c0,16.6,0,33.3,0,49.9c0,2.2,0.2,4.4,0.4,6.6c0.4,4.4,2.9,7,7.3,7.3c4.1,0.2,8.1,0,12.4,0v16.5
		c-9.2,2.3-18.6,2.2-27.6,0.1c-10.5-2.3-14.8-9.6-14.9-23.3c-0.1-18.7,0-37.4,0-56.1v-5.5h-16.7v-16.7h16.5v-30.5h22.6
		C456.2,429.2,456.2,439.1,456.2,449.6L456.2,449.6z M644.7,551.8c-8.7,0-16.9,0.3-25.1-0.1c-7.9-0.3-14-5.6-15.8-13.4
		c-1-4.5-1.5-9-1.6-13.6c-0.2-17.6-0.1-35.2-0.1-52.8v-5.6h-16.7v-16.4H602v-30.6h22.6v30.1h20.1v16.6h-19.2
		c-0.2,1.5-0.5,2.5-0.5,3.6c0,17.9-0.1,35.8,0,53.7c0.1,9.5,2.5,11.7,11.9,11.7c2.5,0,5,0,7.8,0L644.7,551.8z M682.3,450v17.3
		c8.7-14.8,20.7-22.4,38.5-19.8v21.4c-8.4-1.3-16.6-1.5-23.8,3.7c-9.5,6.8-12.8,16.7-13,27.7c-0.4,16.9-0.1,33.9-0.1,51.2h-22.2V450
		C668.5,450,675.1,450,682.3,450z"/>
</g>
</svg>
