<?xml version="1.0" encoding="utf-8"?>
<!-- Generator: Adobe Illustrator 23.0.1, SVG Export Plug-In . SVG Version: 6.00 Build 0)  -->
<svg version="1.1" id="Layer_1" xmlns="http://www.w3.org/2000/svg" xmlns:xlink="http://www.w3.org/1999/xlink" x="0px" y="0px"
	 viewBox="0 0 1000 1000" style="enable-background:new 0 0 1000 1000;" xml:space="preserve">
<style type="text/css">
	.st0{fill:#3A4E55;}
	.st1{clip-path:url(#SVGID_2_);}
	.st2{fill:#00ACD3;}
	.st3{fill:#27C2ED;}
	.st4{fill:#010101;stroke:#3A4E55;stroke-width:1.56;}
	.st5{fill:#21B4E9;}
	.st6{fill:#010101;fill-opacity:0.17;}
	.st7{fill:#D4EDF1;}
	.st8{fill:#010101;fill-opacity:8.500000e-02;}
	.st9{fill:none;stroke:#3A4E55;stroke-width:0.628;stroke-linecap:round;}
</style>
<g transform="matrix(.679423 0 0 .679423 -2.086149 13.781817)">
	<path class="st0" d="M854.1,561.9h131.7v134.7h66.6c31.1-0.1,62.1-5.3,91.5-15.4c14.4-4.9,30.4-11.6,44.5-20.1
		c-18.6-24.3-28.1-54.9-31.2-85.2c-3.8-41.1,4.5-94.6,32.3-126.8l13.9-16l16.5,13.3c41.6,33.4,76.5,80,82.7,133.2
		c50-14.7,108.8-11.2,152.9,14.2l18.1,10.5l-9.5,18.6c-37,72.7-115,95.3-191.3,91.3c-114.1,284.1-362.4,418.6-663.5,418.6
		c-155.6,0-298.3-58.2-379.5-196.2c-4.8-8.6-8.8-17.5-13.2-26.3c-27.5-60.7-36.6-127.3-30.4-193.5l1.9-19.9h112.3V562h131.7V430.2
		h263.5V298.5h158.1V562"/>
	<g>
		<defs>
			<path id="SVGID_1_" d="M442.2,309.9v265H315.5v132.5H209.3l-1.2,11.5c-6.6,72.2,6,138.8,34.9,195.7l9.7,17.5
				c5.8,10.5,12.7,20.3,19.8,29.9c7.1,9.6,9.7,14.9,14.2,21.2c76.6,86,190.7,127.5,322.5,127.5c291.8,0,539.5-129.3,649.1-419.7
				c77.8,8,152.4-12,186.4-78.3c-54.2-31.3-123.7-21.2-163.8-1.1l106.2-301.8l-414.8,265H839.8v-265H442.2z"/>
		</defs>
		<clipPath id="SVGID_2_">
			<use xlink:href="#SVGID_1_"  style="overflow:visible;"/>
		</clipPath>
		<g transform="matrix(.184659 0 0 .184659 3.070472 -11.997864)" class="st1">
			<g id="B">
				<g id="C" transform="translate(0 -22.866)">
					<path class="st2" d="M3871.5,1108.8h618.4v618.3h-618.4V1108.8z"/>
					<path class="st3" d="M3871.5,1822.5h618.4v618.4h-618.4V1822.5z"/>
					<path id="D" class="st4" d="M3947.3,1675.9v-515.4 M4040.1,1675.9v-515.3 M4133.7,1675.9v-515.3 M4227.4,1675.9v-515.3
						 M4321.1,1675.9v-515.3 M4413.8,1675.9v-515.3"/>
					<g>
						<path class="st4" d="M3947.3,2389.4V1874 M4040.1,2389.4V1874 M4133.7,2389.4V1874 M4227.4,2389.4V1874 M4321.1,2389.4V1874
							 M4413.8,2389.4V1874"/>
					</g>
				</g>
				<g transform="matrix(1 0 0 -1 22.866 4.572651)">
					<g transform="translate(0 -22.866)">
						<path class="st2" d="M4584.9,2441.2h618.4v-618.3h-618.4V2441.2z"/>
						<path class="st3" d="M4584.9,1727.5h618.4v-618.4h-618.4V1727.5z"/>
						<path class="st4" d="M4660.8,1874.1v515.4 M4753.5,1874.1v515.3 M4847.2,1874.1v515.3 M4940.9,1874.1v515.3 M5034.6,1874.1
							v515.3 M5127.3,1874.1v515.3"/>
						<g>
							<path class="st4" d="M4660.8,1160.6V1676 M4753.5,1160.6V1676 M4847.2,1160.6V1676 M4940.9,1160.6V1676 M5034.6,1160.6V1676
								 M5127.3,1160.6V1676"/>
						</g>
					</g>
				</g>
			</g>
			<g>
				<g>
					<g transform="translate(0 -22.866)">
						<path class="st2" d="M1017.6,2535.7H1636V3154h-618.4V2535.7z"/>
						<path class="st3" d="M1017.6,3249.5H1636v618.4h-618.4V3249.5z"/>
						<path class="st4" d="M1093.5,3102.8v-515.4 M1186.2,3102.8v-515.3 M1279.9,3102.8v-515.3 M1373.6,3102.8v-515.3
							 M1467.3,3102.8v-515.3 M1560,3102.8v-515.3"/>
						<g>
							<path class="st4" d="M1093.5,3816.3v-515.4 M1186.2,3816.3v-515.3 M1279.9,3816.3v-515.3 M1373.6,3816.3v-515.3
								 M1467.3,3816.3v-515.3 M1560,3816.3v-515.3"/>
						</g>
					</g>
					<g transform="matrix(1 0 0 -1 22.866 4.572651)">
						<g transform="translate(0 -22.866)">
							<path class="st2" d="M1731.1,3868.2h618.4v-618.3h-618.4V3868.2z"/>
							<path class="st3" d="M1731.1,3154.4h618.4V2536h-618.4V3154.4z"/>
							<path class="st4" d="M1807,3301v515.4 M1899.7,3301v515.3 M1993.4,3301v515.3 M2087.1,3301v515.3 M2180.8,3301v515.3
								 M2273.4,3301v515.3"/>
							<g>
								<path class="st4" d="M1807,2587.5v515.4 M1899.7,2587.6v515.3 M1993.4,2587.6v515.3 M2087.1,2587.6v515.3 M2180.8,2587.6
									v515.3 M2273.4,2587.6v515.3"/>
							</g>
						</g>
					</g>
				</g>
			</g>
			<g>
				<g>
					<g transform="translate(0 -22.866)">
						<path class="st2" d="M2444.5,2535.7h618.4V3154h-618.4V2535.7z"/>
						<path class="st3" d="M2444.5,3249.5h618.4v618.4h-618.4V3249.5z"/>
						<path class="st4" d="M2520.4,3102.8v-515.4 M2613.1,3102.8v-515.3 M2706.8,3102.8v-515.3 M2800.5,3102.8v-515.3
							 M2894.2,3102.8v-515.3 M2986.9,3102.8v-515.3"/>
						<g>
							<path class="st4" d="M2520.4,3816.3v-515.4 M2613.1,3816.3v-515.3 M2706.8,3816.3v-515.3 M2800.5,3816.3v-515.3
								 M2894.2,3816.3v-515.3 M2986.9,3816.3v-515.3"/>
						</g>
					</g>
					<g transform="matrix(1 0 0 -1 22.866 4.572651)">
						<g transform="translate(0 -22.866)">
							<path class="st2" d="M3158,3868.2h618.4v-618.3H3158V3868.2z"/>
							<path class="st3" d="M3158,3154.4h618.4V2536H3158V3154.4z"/>
							<path class="st4" d="M3233.9,3301v515.4 M3326.6,3301v515.3 M3420.3,3301v515.3 M3514,3301v515.3 M3607.7,3301v515.3
								 M3700.3,3301v515.3"/>
							<g>
								<path class="st4" d="M3233.9,2587.5v515.4 M3326.6,2587.6v515.3 M3420.3,2587.6v515.3 M3514,2587.6v515.3 M3607.7,2587.6
									v515.3 M3700.3,2587.6v515.3"/>
							</g>
						</g>
					</g>
				</g>
			</g>
			<g>
				<g>
					<g transform="translate(0 -22.866)">
						<path class="st2" d="M3871.5,2535.7h618.4V3154h-618.4V2535.7z"/>
						<path class="st3" d="M3871.5,3249.5h618.4v618.4h-618.4V3249.5z"/>
						<path class="st4" d="M3947.3,3102.8v-515.4 M4040.1,3102.8v-515.3 M4133.7,3102.8v-515.3 M4227.4,3102.8v-515.3
							 M4321.1,3102.8v-515.3 M4413.8,3102.8v-515.3"/>
						<g>
							<path class="st4" d="M3947.3,3816.3v-515.4 M4040.1,3816.3v-515.3 M4133.7,3816.3v-515.3 M4227.4,3816.3v-515.3
								 M4321.1,3816.3v-515.3 M4413.8,3816.3v-515.3"/>
						</g>
					</g>
					<g transform="matrix(1 0 0 -1 22.866 4.572651)">
						<g transform="translate(0 -22.866)">
							<path class="st2" d="M4584.9,3868.2h618.4v-618.3h-618.4V3868.2z"/>
							<path class="st3" d="M4584.9,3154.4h618.4V2536h-618.4V3154.4z"/>
							<path class="st4" d="M4660.8,3301v515.4 M4753.5,3301v515.3 M4847.2,3301v515.3 M4940.9,3301v515.3 M5034.6,3301v515.3
								 M5127.3,3301v515.3"/>
							<g>
								<path class="st4" d="M4660.8,2587.5v515.4 M4753.5,2587.6v515.3 M4847.2,2587.6v515.3 M4940.9,2587.6v515.3 M5034.6,2587.6
									v515.3 M5127.3,2587.6v515.3"/>
							</g>
						</g>
					</g>
				</g>
			</g>
			<path class="st5" d="M6920.2,3377.6c47.8-371.8-230.4-663.8-402.9-802.4c-198.8,229.9-229.7,832.4,82.2,1086
				c-174.1,154.6-540.9,294.8-916.6,294.8H1067.7c-36.5,392.1,0,2280.3,0,2280.3h6770.8l-30.8-2852.6
				C7514.4,3214.4,7137.3,3268.4,6920.2,3377.6"/>
			<path class="st6" d="M1067.7,4457.8v1778.5h6770.8V4457.8"/>
			<path class="st7" d="M3477.6,6077.1c-422.5-200.5-654.4-473-783.4-770.5l-1283.3,56l655.2,873.7L3477.6,6077.1"/>
			<path class="st8" d="M6949.2,3363.8v0.9c-650.9,839.3-1584.5,1571.9-2586.8,1957c-894.1,343.5-1673.6,345.1-2211.4,69.3
				c-57.9-32.7-114.7-69-171.6-103.3C1585,5012,1363,4556.2,1381.6,3955.7h-314v2280.6h6770.8V3240.9h-780L6949.2,3363.8z"/>
		</g>
	</g>
	<path class="st9" d="M267.2,972.7c81.6,4.5,168.7,5.3,244.7-18.5"/>
	<path class="st7" d="M593,914.6c0,17.4-14.1,31.5-31.5,31.5c-17.4,0-31.5-14.1-31.5-31.5c0-17.4,14.1-31.5,31.5-31.5l0,0
		C578.9,883.1,593,897.2,593,914.6z"/>
	<path class="st0" d="M570,893.6c-2.7,1.6-4.6,4.6-4.6,8c0,5.1,4.1,9.2,9.2,9.2c3.5,0,6.2-1.9,8.1-4.8c1.1,2.7,1.7,5.7,1.7,8.6
		c0,12.5-10.1,22.6-22.6,22.6s-22.6-10.1-22.6-22.6s10.1-22.6,22.6-22.6C564.7,892.1,567.4,892.6,570,893.6L570,893.6z M4.3,817.8
		h1465.4c-31.9-8.1-100.9-18.7-89.5-60.8c-58,67.1-197.9,46.8-233.2,14c-39.3,57-268.2,35.4-284.2-9.4c-49.3,57.8-202,57.8-251.3,0
		c-16,44.4-244.9,66.1-283.9,9.4c-35.6,32.8-175.5,53.2-233.6-14C105.2,798.8,36.2,810,4.3,817.8"/>
</g>
</svg>
