<?xml version="1.0" encoding="utf-8"?>
<!-- Generator: Adobe Illustrator 24.2.0, SVG Export Plug-In . SVG Version: 6.00 Build 0)  -->
<svg version="1.1" id="Layer_1" xmlns="http://www.w3.org/2000/svg" xmlns:xlink="http://www.w3.org/1999/xlink" x="0px" y="0px"
	 viewBox="0 0 1000 1000" style="enable-background:new 0 0 1000 1000;" xml:space="preserve">
<style type="text/css">
	.st0{fill:#48BA7F;}
	.st1{fill:#8162AA;}
	.st2{fill:#F05023;}
	.st3{fill:#F37264;}
	.st4{fill:#47B8E9;}
</style>
<g>
	<path id="path0_fill" class="st0" d="M371,887c71.2,0,129-57.8,129-129V629H371c-71.2,0-129,57.8-129,129S299.8,887,371,887z"/>
	<path id="path1_fill" class="st1" d="M242,500c0-71.2,57.8-129,129-129h129v258H371C299.8,629,242,571.2,242,500z"/>
	<path id="path1_fill_1_" class="st2" d="M242,242c0-71.2,57.8-129,129-129h129v258H371C299.8,371,242,313.2,242,242z"/>
	<path id="path2_fill" class="st3" d="M500,113h129c71.2,0,129,57.8,129,129s-57.8,129-129,129H500V113z"/>
	<path id="path3_fill" class="st4" d="M758,500c0,71.2-57.8,129-129,129s-129-57.8-129-129s57.8-129,129-129S758,428.8,758,500z"/>
</g>
</svg>
