<?xml version="1.0" encoding="utf-8"?>
<!-- Generator: Adobe Illustrator 24.0.2, SVG Export Plug-In . SVG Version: 6.00 Build 0)  -->
<svg version="1.0" id="Layer_1" xmlns="http://www.w3.org/2000/svg" xmlns:xlink="http://www.w3.org/1999/xlink" x="0px" y="0px"
	 viewBox="0 0 300 280" enable-background="new 0 0 300 280" xml:space="preserve">
<g>
	
		<radialGradient id="SVGID_1_" cx="-183.0146" cy="-47.6795" r="0.0658" gradientTransform="matrix(2291.6716 0 0 -2218.7549 419525.4063 -105702.4141)" gradientUnits="userSpaceOnUse">
		<stop  offset="0" style="stop-color:#433426;stop-opacity:0.98"/>
		<stop  offset="1" style="stop-color:#1F110A"/>
	</radialGradient>
	<path fill="url(#SVGID_1_)" d="M50.75,43.46h198.5v193.08H50.75V43.46z"/>
	<path fill="#F57F22" d="M50.75,43.46h198.5v193.08H50.75V43.46z M41.73,245.56h216.54V34.44H41.73V245.56z M183.56,109.68
		c0-0.72,0.27-1.08,1.08-1.08h14.17c0.72,0,1.08,0.27,1.08,1.08v71.19c0,0.72-0.18,1.08-1.08,1.08h-13.99
		c-0.9,0-1.17-0.45-1.17-1.17v-71.1L183.56,109.68L183.56,109.68z M182.57,89.2c0-5.77,4.06-9.2,9.2-9.2c5.5,0,9.2,3.7,9.2,9.2
		c0,5.95-3.88,9.2-9.38,9.2C186.36,98.41,182.57,95.16,182.57,89.2z M141.97,139.37c-2.53-10.02-8.48-31.85-10.74-42.41h-0.18
		c-1.89,10.56-6.68,28.42-10.47,42.41H141.97z M116.89,153.99l-7.13,27.07c-0.18,0.72-0.45,0.9-1.35,0.9H95.14
		c-0.9,0-1.08-0.27-0.9-1.35l25.62-89.69c0.45-1.62,0.72-3.07,0.9-7.49c0-0.63,0.27-0.9,0.72-0.9h18.95c0.63,0,0.9,0.18,1.08,0.9
		l28.69,97.35c0.18,0.72,0,1.17-0.72,1.17h-14.98c-0.72,0-1.17-0.18-1.35-0.81l-7.4-27.16H116.89L116.89,153.99z"/>
</g>
</svg>
