<svg id="Layer_1" data-name="Layer 1" xmlns="http://www.w3.org/2000/svg" viewBox="0 0 280 300"><defs><style>.cls-1{fill:#f0543f;}.cls-2{fill:#6d6e6e;}</style></defs><title>Laravel Logo</title><path class="cls-1" d="M159.56,190a2.5,2.5,0,0,1-2.14-1.21L138.58,157.4,103.38,167a2.5,2.5,0,0,1-2.86-1.24L59.37,88.33a2.5,2.5,0,0,1,1.87-3.64l35-4.7a2.48,2.48,0,0,1,2.47,1.18l42.23,70.44L190,138.27l-16.39-23.1a2.49,2.49,0,0,1-.3-2.32,2.52,2.52,0,0,1,1.76-1.54l23-5.42a2.48,2.48,0,0,1,2.52.87l19.86,24.79a2.48,2.48,0,0,1-1.29,4l-20.92,5.69,18.24,25.71a2.5,2.5,0,0,1-1.21,3.8L160.38,189.9A2.57,2.57,0,0,1,159.56,190Zm-16-34,17.07,28.48,49.77-17.43L193,142.6ZM65.45,89.15,104,161.65,135.92,153,95.25,85.14Zm114.34,26.16,15.3,21.56,19-5.17-16.5-20.6Z"/><path class="cls-2" d="M94.76,197.19h2.08v22.43H94.76Z"/><path class="cls-2" d="M117.29,203.43v16.19h-2.05v-2.78a8.79,8.79,0,0,1-2.94,2.39,8.17,8.17,0,0,1-9.43-1.69,8.35,8.35,0,0,1-2.43-6.06,8.23,8.23,0,0,1,2.45-6A8,8,0,0,1,108.8,203a7.6,7.6,0,0,1,3.61.85,8.16,8.16,0,0,1,2.83,2.54v-3ZM109,205a6.26,6.26,0,0,0-5.55,3.25,6.55,6.55,0,0,0,0,6.54,6.39,6.39,0,0,0,2.35,2.43,6.19,6.19,0,0,0,3.18.87,6.54,6.54,0,0,0,3.23-.86,6.1,6.1,0,0,0,2.36-2.34,6.63,6.63,0,0,0,.82-3.31,6.43,6.43,0,0,0-1.85-4.7A6.1,6.1,0,0,0,109,205Z"/><path class="cls-2" d="M121.19,203.43h2.13v2.37a7.34,7.34,0,0,1,2-2.09,4,4,0,0,1,2.2-.69,3.75,3.75,0,0,1,1.84.55l-1.08,1.75a2.9,2.9,0,0,0-1.1-.28,3,3,0,0,0-2,.86,5.29,5.29,0,0,0-1.47,2.65,25.3,25.3,0,0,0-.39,5.6v5.47h-2.13Z"/><path class="cls-2" d="M147.27,203.43v16.19h-2.05v-2.78a8.89,8.89,0,0,1-2.94,2.39,8.17,8.17,0,0,1-9.43-1.69,8.36,8.36,0,0,1-2.44-6.06,8.2,8.2,0,0,1,2.46-6,8,8,0,0,1,5.91-2.48,7.56,7.56,0,0,1,3.6.85,8.19,8.19,0,0,1,2.84,2.54v-3ZM139,205a6.26,6.26,0,0,0-5.55,3.25,6.58,6.58,0,0,0,0,6.54,6.41,6.41,0,0,0,2.36,2.43,6.15,6.15,0,0,0,3.17.87,6.55,6.55,0,0,0,3.24-.86,6.1,6.1,0,0,0,2.36-2.34,6.63,6.63,0,0,0,.82-3.31,6.47,6.47,0,0,0-1.85-4.7A6.1,6.1,0,0,0,139,205Z"/><path class="cls-2" d="M150.42,203.43h2.22l5.43,11.8,5.37-11.8h2.23l-7.41,16.19h-.38Z"/><path class="cls-2" d="M182.47,214.25l1.75.92a9.64,9.64,0,0,1-2,2.74,8,8,0,0,1-2.55,1.58,8.7,8.7,0,0,1-3.2.55,7.73,7.73,0,0,1-6.19-2.6,8.77,8.77,0,0,1-2.24-5.87,8.67,8.67,0,0,1,1.89-5.49,7.74,7.74,0,0,1,6.42-3.06,8,8,0,0,1,6.61,3.14,8.75,8.75,0,0,1,1.79,5.53H170.2a6.59,6.59,0,0,0,1.8,4.62,5.71,5.71,0,0,0,4.3,1.81,7.08,7.08,0,0,0,2.41-.43,6.52,6.52,0,0,0,2-1.14A10.1,10.1,0,0,0,182.47,214.25Zm0-4.36a6.91,6.91,0,0,0-1.21-2.66,5.84,5.84,0,0,0-2.11-1.61,6.46,6.46,0,0,0-2.76-.61,5.92,5.92,0,0,0-4.09,1.53,6.94,6.94,0,0,0-1.9,3.35Z"/><path class="cls-2" d="M188.33,197.19h2.08v22.43h-2.08Z"/></svg>