<?xml version="1.0" encoding="utf-8"?>
<!-- Generator: Adobe Illustrator 23.0.1, SVG Export Plug-In . SVG Version: 6.00 Build 0)  -->
<svg version="1.1" id="Layer_1" xmlns="http://www.w3.org/2000/svg" xmlns:xlink="http://www.w3.org/1999/xlink" x="0px" y="0px"
	 viewBox="0 0 1000 1000" style="enable-background:new 0 0 1000 1000;" xml:space="preserve">
<style type="text/css">
	.st0{fill:#001E36;}
	.st1{fill:#31A8FF;}
</style>
<g id="Layer_2_1_">
	<g id="Surfaces">
		<g id="Photo_Surface">
			<g id="Outline_no_shadow">
				<path class="st0" d="M184,22.9h632c95.7,0,173.3,77.6,173.3,173.3v607.6c0,95.7-77.6,173.3-173.3,173.3H184
					c-95.7,0-173.3-77.6-173.3-173.3V196.2C10.7,100.4,88.2,22.9,184,22.9z"/>
			</g>
		</g>
	</g>
	<g id="Outlined_Mnemonics_Logos">
		<g id="Ps">
			<path class="st1" d="M230.9,692V272.4c0-2.8,1.2-4.4,4.1-4.4c6.9,0,13.3,0,22.8-0.5c9.9-0.5,20-0.5,31.1-0.9s22.8-0.5,35.4-0.9
				s24.9-0.5,37.1-0.5c33.4,0,61.2,4.1,84,12.7c20.5,6.9,39.1,18.4,54.5,33.4c13.1,13.1,23.2,29,29.7,46.5c6.2,17,9.4,34.8,9.4,52.9
				c0,35-8.1,64-24.4,86.8c-16.3,22.8-39.1,40-65.6,49.7c-27.6,10.1-58.2,13.8-91.8,13.8c-9.9,0-16.3,0-20.5-0.5
				c-4.1-0.5-9.9-0.5-17.5-0.5v131c0.5,2.8-1.6,5.3-4.4,5.8c-0.5,0-0.9,0-1.6,0h-77.6C232.5,697.3,230.9,695.6,230.9,692z
				 M319.8,346.7v136.9c5.8,0.5,11,0.9,15.9,0.9h21.6c15.9,0,31.8-2.5,47-7.4c13.1-3.7,24.4-11.5,33.4-21.6
				c8.5-10.1,12.7-24.2,12.7-41.9c0.5-12.7-2.8-25.3-9.4-36.4c-6.9-10.6-16.8-18.6-28.5-23.2c-15.2-6.2-31.3-8.5-48.1-8.1
				c-10.6,0-20,0-27.6,0.5C328.3,345.8,322.5,346.2,319.8,346.7L319.8,346.7z"/>
			<path class="st1" d="M793.7,458.8c-12.2-6.4-25.3-11-39.1-13.8c-15.2-3.2-30.2-5.3-45.6-5.3c-8.1-0.5-16.8,0.9-24.4,2.8
				c-5.3,1.2-9.9,4.1-12.7,8.1c-2.1,3.2-3.2,7.4-3.2,11c0,3.7,1.6,7.4,4.1,10.6c3.7,4.4,8.5,8.1,13.8,11c9.4,4.8,19.1,9.4,29,13.3
				c22.1,7.4,43.3,17.5,62.8,29.7c13.3,8.5,24.4,20,32.2,33.8c6.4,13.1,9.9,27.4,9.4,41.9c0.5,19.1-5.3,38.4-15.9,54.3
				c-11.5,16.3-27.4,29-45.6,36.4c-20,8.5-44.4,13.1-73.9,13.1c-18.6,0-37.1-1.6-55.5-5.3c-14.3-2.5-28.5-6.9-41.7-13.1
				c-2.8-1.6-4.8-4.4-4.4-7.8v-70.9c0-1.2,0.5-2.8,1.6-3.7s2.5-0.5,3.7,0.5c15.9,9.4,32.7,15.9,50.6,20c15.4,4.1,31.8,6.2,48.1,6.2
				c15.4,0,26.5-2.1,33.8-5.8c6.4-2.8,11-9.9,11-17c0-5.8-3.2-11-9.9-16.3c-6.4-5.3-20-11.5-40-19.1c-20.7-7.4-40-17-58-29.5
				c-12.7-9-23.2-20.7-31.1-34.8c-6.4-13.1-9.9-27.4-9.4-41.7c0-17.5,4.8-34.3,13.8-49.3c10.1-16.3,25.3-29.5,42.8-37.5
				c19.1-9.9,43.3-14.3,72.3-14.3c16.8,0,33.8,1.2,50.6,3.7c12.2,1.6,24.2,4.8,35,9.4c1.6,0.5,3.2,2.1,4.1,3.7
				c0.5,1.6,0.9,3.2,0.9,4.8v66.5c0,1.6-0.9,3.2-2.1,4.1C797.4,459.7,795.3,459.7,793.7,458.8z"/>
		</g>
	</g>
</g>
</svg>
