<?xml version="1.0" encoding="utf-8"?>
<!-- Generator: Adobe Illustrator 24.2.0, SVG Export Plug-In . SVG Version: 6.00 Build 0)  -->
<svg version="1.1" id="Layer_1" xmlns="http://www.w3.org/2000/svg" xmlns:xlink="http://www.w3.org/1999/xlink" x="0px" y="0px"
	 viewBox="0 0 1000 1000" style="enable-background:new 0 0 1000 1000;" xml:space="preserve">
<style type="text/css">
	.st0{fill:#00749A;}
	.st1{fill:#464342;}
</style>
<g>
	<path class="st0" d="M461.9,660.3h-39.4v4.2c12.3,0,14.3,2.6,14.3,18.3V711c0,15.6-2,18.5-14.3,18.5c-9.5-1.3-15.9-6.4-24.7-16.1
		l-10.1-11c13.7-2.4,20.9-11,20.9-20.7c0-12.1-10.3-21.4-29.7-21.4h-38.8v4.2c12.3,0,14.3,2.6,14.3,18.3V711
		c0,15.6-2,18.5-14.3,18.5v4.2h43.8v-4.2c-12.3,0-14.3-2.9-14.3-18.5v-7.9h3.7l24.4,30.6h64.1c31.5,0,45.1-16.7,45.1-36.8
		C507.1,676.8,493.4,660.3,461.9,660.3z M369.6,696.2v-29.3h9c9.9,0,14.3,6.8,14.3,14.7c0,7.7-4.4,14.5-14.3,14.5H369.6z
		 M462.6,726.8H461c-7.9,0-9-2-9-12.1v-47.8c0,0,9.7,0,10.6,0c22.9,0,27.1,16.7,27.1,29.7C489.7,710.1,485.5,726.8,462.6,726.8z"/>
	<path class="st0" d="M217.4,704.4l15.2-44.9c4.4-13,2.4-16.7-11.7-16.7v-4.4h41.4v4.4c-13.9,0-17.2,3.3-22.7,19.4l-25.1,75.3h-2.9
		l-22.5-68.9l-22.9,68.9h-2.9L139,662.1c-5.3-16.1-8.8-19.4-21.6-19.4v-4.4h48.9v4.4c-13,0-16.5,3.1-11.9,16.7l14.8,44.9l22.2-66.1
		h4.2L217.4,704.4z"/>
	<path class="st0" d="M292.3,736.5c-24.2,0-44-17.8-44-39.6c0-21.6,19.8-39.4,44-39.4c24.2,0,44,17.8,44,39.4
		C336.4,718.7,316.5,736.5,292.3,736.5z M292.3,664.3c-20.3,0-27.3,18.3-27.3,32.6c0,14.5,7,32.6,27.3,32.6
		c20.5,0,27.5-18.1,27.5-32.6C319.9,682.6,312.8,664.3,292.3,664.3z"/>
	<path class="st1" d="M561.4,729.3v4.4H511v-4.4c14.8,0,17.4-3.7,17.4-25.8v-35.2c0-22-2.6-25.5-17.4-25.5v-4.4h45.6
		c22.7,0,35.2,11.7,35.2,27.3c0,15.2-12.6,27.1-35.2,27.1H544v10.8C544,725.5,546.7,729.3,561.4,729.3z M556.6,646.2H544v38.3h12.6
		c12.3,0,18.1-8.6,18.1-18.9C574.7,655,568.9,646.2,556.6,646.2z"/>
	<path class="st1" d="M743.1,713l-1.1,4c-2,7.3-4.4,9.9-20,9.9h-3.1c-11.5,0-13.4-2.6-13.4-18.3v-10.1c17.2,0,18.5,1.5,18.5,13h4.2
		v-32.8H724c0,11.5-1.3,13-18.5,13v-24.7h12.1c15.6,0,18.1,2.6,20,9.9l1.1,4.2h3.5l-1.5-20.7H676v4.2c12.3,0,14.3,2.6,14.3,18.3V711
		c0,14.3-1.7,17.9-11.4,18.4c-9.2-1.4-15.6-6.5-24.3-16l-10.1-11c13.7-2.4,20.9-11,20.9-20.7c0-12.1-10.3-21.4-29.7-21.4h-38.8v4.2
		c12.3,0,14.3,2.6,14.3,18.3V711c0,15.6-2,18.5-14.3,18.5v4.2h43.8v-4.2c-12.3,0-14.3-2.9-14.3-18.5v-7.9h3.7l24.4,30.6h90.5
		l1.3-20.7H743.1z M626.4,696.2v-29.3h9c9.9,0,14.3,6.8,14.3,14.7c0,7.7-4.4,14.5-14.3,14.5H626.4z"/>
	<path class="st1" d="M787.8,736.5c-8.8,0-16.5-4.6-19.8-7.5c-1.1,1.1-3.1,4.4-3.5,7.5h-4.2v-30.4h4.4c1.8,14.5,11.9,23.1,24.9,23.1
		c7,0,12.8-4,12.8-10.6c0-5.7-5.1-10.1-14.1-14.3l-12.6-5.9c-8.8-4.2-15.4-11.5-15.4-21.1c0-10.6,9.9-19.6,23.6-19.6
		c7.3,0,13.4,2.6,17.2,5.7c1.1-0.9,2.2-3.3,2.9-6h4.2v26h-4.6c-1.5-10.4-7.3-18.9-18.9-18.9c-6.2,0-11.9,3.5-11.9,9
		c0,5.7,4.6,8.8,15.2,13.7l12.1,5.9c10.6,5.1,14.8,13.2,14.8,19.8C814.7,726.8,802.6,736.5,787.8,736.5z"/>
	<path class="st1" d="M855.7,736.5c-8.8,0-16.5-4.6-19.8-7.5c-1.1,1.1-3.1,4.4-3.5,7.5h-4.2v-30.4h4.4c1.8,14.5,11.9,23.1,24.9,23.1
		c7,0,12.8-4,12.8-10.6c0-5.7-5.1-10.1-14.1-14.3l-12.6-5.9c-8.8-4.2-15.4-11.5-15.4-21.1c0-10.6,9.9-19.6,23.6-19.6
		c7.3,0,13.4,2.6,17.2,5.7c1.1-0.9,2.2-3.3,2.9-6h4.2v26h-4.6c-1.5-10.4-7.3-18.9-18.9-18.9c-6.2,0-11.9,3.5-11.9,9
		c0,5.7,4.6,8.8,15.2,13.7l12.1,5.9c10.6,5.1,14.8,13.2,14.8,19.8C882.5,726.8,870.4,736.5,855.7,736.5z"/>
	<g>
		<path class="st0" d="M357,428.4c0,56.3,32.7,105,80.2,128.1l-67.9-186C361.4,388.2,357,407.8,357,428.4z"/>
		<path class="st0" d="M595.3,421.3c0-17.6-6.3-29.8-11.7-39.2c-7.2-11.7-14-21.6-14-33.4c0-13.1,9.9-25.3,23.9-25.3
			c0.6,0,1.2,0.1,1.8,0.1c-25.3-23.2-59-37.4-96.1-37.4c-49.7,0-93.4,25.5-118.9,64.1c3.3,0.1,6.5,0.2,9.2,0.2
			c14.9,0,37.9-1.8,37.9-1.8c7.7-0.5,8.6,10.8,0.9,11.7c0,0-7.7,0.9-16.3,1.4l51.8,154.1l31.1-93.4l-22.2-60.7
			c-7.7-0.5-14.9-1.4-14.9-1.4c-7.7-0.4-6.8-12.2,0.9-11.7c0,0,23.5,1.8,37.5,1.8c14.9,0,37.9-1.8,37.9-1.8
			c7.7-0.5,8.6,10.8,0.9,11.7c0,0-7.7,0.9-16.3,1.4l51.4,153l14.2-47.4C590.6,447.6,595.3,433.4,595.3,421.3z"/>
		<path class="st0" d="M501.7,440.9l-42.7,124.1c12.7,3.7,26.2,5.8,40.2,5.8c16.6,0,32.5-2.9,47.3-8.1c-0.4-0.6-0.7-1.3-1-2
			L501.7,440.9z"/>
		<path class="st0" d="M624.1,360.2c0.6,4.5,1,9.4,1,14.6c0,14.4-2.7,30.7-10.8,51l-43.5,125.7c42.3-24.7,70.8-70.5,70.8-123
			C641.5,403.7,635.2,380.4,624.1,360.2z"/>
		<path class="st0" d="M499.2,262.6c-91.5,0-165.9,74.4-165.9,165.9c0,91.5,74.4,165.9,165.9,165.9c91.5,0,165.9-74.4,165.9-165.9
			C665.1,337,590.7,262.6,499.2,262.6z M499.2,586.7c-87.3,0-158.3-71-158.3-158.3c0-87.3,71-158.3,158.3-158.3
			c87.3,0,158.3,71,158.3,158.3C657.5,515.7,586.5,586.7,499.2,586.7z"/>
	</g>
</g>
</svg>
